<?xml version="1.0" encoding="UTF-8"?>
<svg version="1.1" xmlns="http://www.w3.org/2000/svg" width="530" height="270">
<path d="M0 0 C8.38157622 4.9816423 12.52549252 12.82749664 15.328125 21.93359375 C18.84270134 36.81342043 17.38424047 54.11982481 9.46484375 67.25390625 C4.817655 73.62184247 -0.91556393 77.98257704 -8.78515625 79.31640625 C-16.56304668 80.08459296 -22.86127258 79.02901706 -29.78515625 75.31640625 C-30.44515625 74.65640625 -31.10515625 73.99640625 -31.78515625 73.31640625 C-32.11515625 118.52640625 -32.44515625 163.73640625 -32.78515625 210.31640625 C-40.04515625 210.31640625 -47.30515625 210.31640625 -54.78515625 210.31640625 C-54.78515625 140.35640625 -54.78515625 70.39640625 -54.78515625 -1.68359375 C-48.18515625 -1.68359375 -41.58515625 -1.68359375 -34.78515625 -1.68359375 C-34.12515625 0.29640625 -33.46515625 2.27640625 -32.78515625 4.31640625 C-31.48578125 3.14078125 -31.48578125 3.14078125 -30.16015625 1.94140625 C-22.24332779 -5.22143855 -9.10760276 -4.23643759 0 0 Z M-31.78515625 19.31640625 C-34.07498563 23.89606502 -33.09672275 30.63236065 -33.13525391 35.71899414 C-33.1518015 37.32037908 -33.17907634 38.92169052 -33.21728516 40.52270508 C-33.27218356 42.83583741 -33.29394543 45.14724061 -33.30859375 47.4609375 C-33.33126312 48.17256546 -33.3539325 48.88419342 -33.37728882 49.61738586 C-33.3607964 53.51690963 -32.90739151 55.16377124 -30.43994141 58.24487305 C-25.8935619 61.79242042 -21.35854596 62.00236191 -15.78515625 61.31640625 C-11.24514251 59.04639938 -9.05652304 56.79031054 -6.78515625 52.31640625 C-4.37845588 42.36088473 -3.0837899 29.85117607 -8.59765625 20.69140625 C-12.18705214 16.79434785 -14.86030779 15.15784564 -20.16015625 14.87890625 C-25.00568873 15.0328613 -27.85860662 16.53510026 -31.78515625 19.31640625 Z " fill="#002229" transform="translate(340.78515625,41.68359375)"/>
<path d="M0 0 C9.73338578 7.63652829 16.16822344 19.15933861 18.125 31.375 C18.41731223 35.75488092 18.49665288 40.11986564 18.49560547 44.5090332 C18.49995484 46.5413962 18.53629311 48.5715385 18.57421875 50.60351562 C18.70824493 66.08265666 14.09392412 80.15098462 3.125 91.375 C-7.61656312 99.93041329 -19.36016755 102.23994928 -32.875 101.375 C-44.942928 99.24628637 -55.13351498 93.93695588 -62.63671875 84.0546875 C-72.84205554 68.06546966 -74.64062148 46.94857654 -70.74780273 28.60498047 C-67.97207326 17.56468325 -63.15831601 7.31921276 -53.875 0.375 C-36.63210606 -9.6817275 -17.20259668 -11.56201736 0 0 Z M-43.6875 19.5 C-48.76755951 27.65692643 -49.35836383 37.00754889 -49.25 46.375 C-49.26160156 47.37789062 -49.27320313 48.38078125 -49.28515625 49.4140625 C-49.24396141 60.04233004 -47.23499932 70.31245529 -39.875 78.375 C-34.97664901 82.34953918 -29.73315894 83.02827696 -23.55078125 82.74609375 C-18.27067262 82.01381591 -14.6427206 80.41437477 -11.12109375 76.3515625 C-2.35038584 63.96690025 -2.5440509 47.46731273 -4.625 32.9375 C-6.34880201 23.96890771 -9.88855964 17.9019944 -17.4375 12.5625 C-27.74568984 9.00148896 -36.80807651 11.05337056 -43.6875 19.5 Z " fill="#002229" transform="translate(253.875,19.625)"/>
<path d="M0 0 C5.18123858 4.54611902 8.31354574 10.33354552 10 17 C10 19.31 10 21.62 10 24 C2.74 24 -4.52 24 -12 24 C-13.32 20.7 -14.64 17.4 -16 14 C-21.736 9.84634482 -27.01459781 9.04434237 -34 10 C-37.85098961 11.06731547 -41.72460272 12.58690408 -44 16 C-45.31663686 20.55758914 -45.13017774 23.73964453 -43 28 C-40.72121594 29.10400632 -40.72121594 29.10400632 -38 30 C-37.07445312 30.35578125 -36.14890625 30.7115625 -35.1953125 31.078125 C-34.18210938 31.46484375 -33.16890625 31.8515625 -32.125 32.25 C-30.98546875 32.69085938 -29.8459375 33.13171875 -28.671875 33.5859375 C-26.18646693 34.54308401 -23.69897655 35.48546267 -21.203125 36.4140625 C-9.49758449 40.83386682 1.46887739 45.74666629 8 57 C11.15687933 64.75933303 11.58545844 74.19525294 8.3125 82 C3.25696821 91.39877215 -3.35578474 95.46800441 -13.4765625 98.8203125 C-28.79168583 102.45701403 -44.56067654 100.02024142 -58 92 C-64.69391585 87.49447971 -69.05204274 80.79182905 -71 73 C-71 70.03 -71 67.06 -71 64 C-63.74 64 -56.48 64 -49 64 C-48.01 67.3 -47.02 70.6 -46 74 C-42.59006205 78.54658394 -39.55038797 79.99911037 -34 81 C-27.78168651 81.56899601 -21.35846285 81.59362306 -16 78 C-13.22769589 73.92308219 -12.71850084 70.94545078 -13.5 66.1875 C-13.85925282 63.9027156 -13.85925282 63.9027156 -15 62 C-17.29057619 60.79461385 -17.29057619 60.79461385 -20 60 C-21.77138297 59.25129908 -23.54217487 58.50119878 -25.3125 57.75 C-28.83091177 56.26810736 -32.35332519 54.85512007 -35.953125 53.5859375 C-48.04355871 49.31388807 -59.25611011 44.61993856 -66 33 C-68.80621198 25.9939505 -69.32757152 18.4581704 -67.16015625 11.1796875 C-62.70689222 1.37351015 -55.59942956 -3.18869236 -45.83203125 -7.0546875 C-30.5361086 -12.16036099 -12.88352931 -9.60038036 0 0 Z " fill="#002229" transform="translate(84,21)"/>
<path d="M0 0 C7.85712784 5.65093924 11.85980986 12.05958481 13.56640625 21.5234375 C13.56640625 23.1734375 13.56640625 24.8234375 13.56640625 26.5234375 C6.63640625 26.5234375 -0.29359375 26.5234375 -7.43359375 26.5234375 C-8.09359375 24.2134375 -8.75359375 21.9034375 -9.43359375 19.5234375 C-11.78782584 16.7277869 -13.66558084 14.73913507 -17.38671875 14.28515625 C-21.35807076 14.15683025 -24.08293669 14.38057722 -27.80859375 15.8984375 C-33.40868995 21.4985337 -33.61592287 28.45945551 -33.74609375 36.0859375 C-33.65083802 46.57310377 -33.65083802 46.57310377 -28.93359375 55.5234375 C-24.51607765 59.05745038 -20.94616085 59.02979115 -15.43359375 58.5234375 C-12.48652129 57.6389766 -12.48652129 57.6389766 -10.43359375 55.5234375 C-9.44359375 53.2134375 -8.45359375 50.9034375 -7.43359375 48.5234375 C-0.50359375 48.5234375 6.42640625 48.5234375 13.56640625 48.5234375 C12.50674485 57.00072866 10.6988571 63.39098665 4.56640625 69.5234375 C-5.8186647 76.93342585 -15.67068649 79.08918678 -28.33203125 77.05859375 C-38.4472348 74.6643789 -45.32826275 69.9005674 -50.99609375 61.17578125 C-57.78554757 48.64850097 -57.88858065 33.07486281 -54.43359375 19.5234375 C-50.29770701 8.58284655 -44.73915739 2.6841001 -34.23828125 -2.3125 C-23.7314195 -6.67328663 -9.75044804 -5.91600218 0 0 Z " fill="#002229" transform="translate(159.43359375,43.4765625)"/>
<path d="M0 0 C33 0 66 0 100 0 C100 33 100 66 100 100 C78.22 100 56.44 100 34 100 C34 102.31 34 104.62 34 107 C31.36 107 28.72 107 26 107 C26 104.69 26 102.38 26 100 C17.42 100 8.84 100 0 100 C0 91.75 0 83.5 0 75 C-2.31 75 -4.62 75 -7 75 C-7 72.03 -7 69.06 -7 66 C-4.69 66 -2.38 66 0 66 C0 44.22 0 22.44 0 0 Z M8 8 C8 27.14 8 46.28 8 66 C10.31 66 12.62 66 15 66 C15 68.97 15 71.94 15 75 C12.69 75 10.38 75 8 75 C8 80.61 8 86.22 8 92 C13.94 92 19.88 92 26 92 C26 89.69 26 87.38 26 85 C28.64 85 31.28 85 34 85 C34 87.31 34 89.62 34 92 C53.14 92 72.28 92 92 92 C92 64.28 92 36.56 92 8 C64.28 8 36.56 8 8 8 Z " fill="#002229" transform="translate(417,14)"/>
<path d="M0 0 C11.55 0 23.1 0 35 0 C35 11.22 35 22.44 35 34 C32.03 34 29.06 34 26 34 C25.67 28.39 25.34 22.78 25 17 C24.17274414 17.85343994 23.34548828 18.70687988 22.49316406 19.58618164 C19.42707828 22.74261722 16.34459648 25.8825986 13.25683594 29.01782227 C11.92155669 30.37828014 10.59079482 31.74318691 9.26464844 33.11254883 C7.35995761 35.07773993 5.4397068 37.02647032 3.515625 38.97265625 C2.62789398 39.89909691 2.62789398 39.89909691 1.722229 40.84425354 C0.02441406 42.54321289 0.02441406 42.54321289 -3 45 C-4.93902588 44.96604919 -4.93902588 44.96604919 -7 44 C-8.32 42.35 -9.64 40.7 -11 39 C-1.43 29.43 8.14 19.86 18 10 C12.06 9.67 6.12 9.34 0 9 C0 6.03 0 3.06 0 0 Z " fill="#002229" transform="translate(466,30)"/>
<path d="M0 0 C2.66666667 0 5.33333333 0 8 0 C9.14082031 -0.06960937 9.14082031 -0.06960937 10.3046875 -0.140625 C14.50992277 -0.31957118 17.23979829 -0.41177593 21 1.625 C24.85794348 6.20630788 25.40651992 10.94701045 25.25 16.7578125 C24.71495552 21.55649269 22.99030383 24.92717085 19.75 28.4375 C16.26081791 30.41998983 13.95723529 30.36641068 10 30 C9.01 29.67 8.02 29.34 7 29 C6.67 32.63 6.34 36.26 6 40 C4.02 40 2.04 40 0 40 C0 26.8 0 13.6 0 0 Z M6 7 C5.77495651 9.7122125 5.67565005 12.28873185 5.6875 15 C5.67138672 15.73734375 5.65527344 16.4746875 5.63867188 17.234375 C5.60058895 19.62719989 5.60058895 19.62719989 6 23 C9.46923881 25.31282587 10.92205575 25.42478586 15 25 C17.55949546 23.14657225 17.97918798 22.06243607 19 19 C19.5156208 14.48620483 19.52552938 11.03003758 17.4375 6.9375 C15.0388284 4.68351404 15.0388284 4.68351404 11.375 4.5625 C7.93358244 4.65952546 7.93358244 4.65952546 6 7 Z " fill="#002229" transform="translate(399,221)"/>
<path d="M0 0 C2.96097282 1.65814478 4.53465437 2.57524746 5.59741211 5.82910156 C6.04309027 8.23235819 6.21216635 10.54218297 6.31640625 12.984375 C6.35830078 13.91894531 6.40019531 14.85351562 6.44335938 15.81640625 C6.48267578 16.78449219 6.52199219 17.75257813 6.5625 18.75 C6.60568359 19.73355469 6.64886719 20.71710938 6.69335938 21.73046875 C6.79922052 24.15351275 6.90130171 26.5766554 7 29 C6.37351562 28.98839844 5.74703125 28.97679687 5.1015625 28.96484375 C3.87566406 28.95130859 3.87566406 28.95130859 2.625 28.9375 C1.40683594 28.92009766 1.40683594 28.92009766 0.1640625 28.90234375 C-2.04937142 28.85533666 -2.04937142 28.85533666 -4 30 C-8.99691647 30.37712577 -11.99067725 30.09290612 -16 27 C-18.34168764 23.48746854 -18.49623677 22.13530644 -18 18 C-16.08905016 14.76608489 -14.64323721 13.30699958 -11.25 11.6875 C-7.36075624 10.86477536 -3.96936258 10.86312543 0 11 C-0.62533375 8.47636012 -0.62533375 8.47636012 -2 6 C-5.28928478 4.8192311 -6.65284689 4.8842823 -10 6 C-10.33 6.99 -10.66 7.98 -11 9 C-12.98 9 -14.96 9 -17 9 C-16.73309994 5.79719931 -16.16670984 4.2056088 -14.125 1.6875 C-9.47667534 -0.82259532 -5.17249184 -0.77665043 0 0 Z M-12 18 C-11.67 19.98 -11.34 21.96 -11 24 C-8.03155004 24.67464772 -5.68650224 25.14843292 -2.6875 24.5 C-0.01612427 22.12544379 -0.2538222 19.42659975 0 16 C-1.4370809 15.94577053 -2.87475462 15.90710277 -4.3125 15.875 C-5.51326172 15.84019531 -5.51326172 15.84019531 -6.73828125 15.8046875 C-9.28388576 15.84182678 -9.28388576 15.84182678 -12 18 Z " fill="#002229" transform="translate(477,221)"/>
<path d="M0 0 C1.01964844 -0.0309375 2.03929687 -0.061875 3.08984375 -0.09375 C7.37064168 0.76128454 8.61758014 1.8546069 11.0625 5.5 C11.80677492 9.6027355 11.85310792 13.65057185 11.875 17.8125 C11.90013672 18.93462891 11.92527344 20.05675781 11.95117188 21.21289062 C12.0099532 23.97561286 12.0462998 26.73675392 12.0625 29.5 C9.39583333 29.5 6.72916667 29.5 4.0625 29.5 C3.0725 29.83 2.0825 30.16 1.0625 30.5 C-3.93692891 30.87032807 -6.90992055 30.5799137 -10.9375 27.5 C-12.54832802 24.27834396 -12.5381214 20.98360411 -11.9375 17.5 C-9.86255073 14.79103845 -8.24794715 13.08744183 -5.125 11.6875 C-1.72079487 11.39571099 1.64621288 11.44306188 5.0625 11.5 C4.7325 9.52 4.4025 7.54 4.0625 5.5 C1.230332 5.16551741 1.230332 5.16551741 -1.9375 5.5 C-2.5975 6.16 -3.2575 6.82 -3.9375 7.5 C-5.9375 9.5 -5.9375 9.5 -9.1875 9.75 C-10.095 9.6675 -11.0025 9.585 -11.9375 9.5 C-10.03942464 2.38221741 -7.42050692 0.0748601 0 0 Z M-6 19 C-6.309375 19.825 -6.61875 20.65 -6.9375 21.5 C-5.9475 22.82 -4.9575 24.14 -3.9375 25.5 C1.07785052 25.17039784 1.07785052 25.17039784 5.0625 22.5 C5.22931109 19.41652174 5.22931109 19.41652174 5.0625 16.5 C-1.22070613 15.63493604 -1.22070613 15.63493604 -6 19 Z " fill="#002229" transform="translate(380.9375,220.5)"/>
<path d="M0 0 C3.71709412 2.5033491 4.74537137 4.35185438 6.375 8.5 C7 12 7 12 6 17 C0.06 17.33 -5.88 17.66 -12 18 C-10.23148964 21.18074165 -10.23148964 21.18074165 -8 24 C-3.33521915 24.42407099 -0.81535994 23.69319525 3 21 C3.99 21.66 4.98 22.32 6 23 C5.00449135 25.6245228 4.06036546 26.95028727 1.875 28.75 C-1.88540304 30.38495784 -4.95893447 30.59958899 -9 30 C-13.12501845 28.21874203 -15.6674452 25.83205432 -18 22 C-19.82668994 15.61279844 -18.98928868 9.88442653 -16 4 C-11.9399609 -1.2019251 -6.11317825 -1.04797341 0 0 Z M-12 8 C-12.33 9.32 -12.66 10.64 -13 12 C-8.38 12 -3.76 12 1 12 C-0.31297122 6.01461763 -0.31297122 6.01461763 -4 4 C-7.97054597 4 -9.16471244 5.3139381 -12 8 Z " fill="#002229" transform="translate(508,173)"/>
<path d="M0 0 C3.15460202 1.77446363 4.50737276 3.15549616 6.3125 6.25 C7 9 7 9 7 17 C0.73 17 -5.54 17 -12 17 C-9.83333333 22.83333333 -9.83333333 22.83333333 -7 24 C-2.32818984 24.41527201 0.17508513 23.69993991 4 21 C6 23 6 23 6 24.9375 C4.41317087 28.21033508 2.35838542 28.77876894 -1 30 C-5.43770507 30.73226545 -8.27339333 30.37015811 -12.3125 28.3125 C-15.83184469 25.28422667 -17.7387489 22.74873485 -18.43359375 18.09765625 C-18.44154538 11.91924147 -18.39370201 7.75984384 -14 3 C-9.64636912 -0.86164274 -5.59954108 -0.81678881 0 0 Z M-11 7 C-11.33 8.65 -11.66 10.3 -12 12 C-7.71 12 -3.42 12 1 12 C0.53389132 7.1469717 0.53389132 7.1469717 -1.9375 5.1875 C-5.70860528 3.01625757 -7.69221846 4.54036757 -11 7 Z " fill="#002229" transform="translate(384,173)"/>
<path d="M0 0 C1.98 0 3.96 0 6 0 C6.02505615 0.65597168 6.0501123 1.31194336 6.07592773 1.98779297 C6.1917326 4.95040183 6.31452886 7.91268031 6.4375 10.875 C6.47681641 11.90753906 6.51613281 12.94007813 6.55664062 14.00390625 C6.61948242 15.48310547 6.61948242 15.48310547 6.68359375 16.9921875 C6.72025146 17.90339355 6.75690918 18.81459961 6.79467773 19.75341797 C6.86577065 22.03483481 6.86577065 22.03483481 8 24 C12.07893732 24.39831223 12.07893732 24.39831223 15.66723633 22.79370117 C17.39352033 20.47038031 17.42450824 18.9912281 17.51171875 16.11328125 C17.54716797 15.17548828 17.58261719 14.23769531 17.61914062 13.27148438 C17.64169922 12.29501953 17.66425781 11.31855469 17.6875 10.3125 C17.72166016 9.32443359 17.75582031 8.33636719 17.79101562 7.31835938 C17.87350538 4.87901947 17.94265068 2.44003937 18 0 C19.65 0 21.3 0 23 0 C23 9.57 23 19.14 23 29 C20.69 29 18.38 29 16 29 C15.34 29.33 14.68 29.66 14 30 C6.93812375 30.57884232 6.93812375 30.57884232 3.0625 28.1875 C-0.10201093 24.83120053 -0.12209759 22.09966311 -0.09765625 17.67578125 C-0.09443359 16.64775391 -0.09121094 15.61972656 -0.08789062 14.56054688 C-0.07951172 13.48869141 -0.07113281 12.41683594 -0.0625 11.3125 C-0.05798828 10.22904297 -0.05347656 9.14558594 -0.04882812 8.02929688 C-0.03703743 5.35280915 -0.02058063 2.67643223 0 0 Z " fill="#002229" transform="translate(443,173)"/>
<path d="M0 0 C1.65 0 3.3 0 5 0 C5.33 0.66 5.66 1.32 6 2 C6.66 1.34 7.32 0.68 8 0 C10.2421875 -0.30078125 10.2421875 -0.30078125 12.875 -0.3125 C13.73867188 -0.32925781 14.60234375 -0.34601563 15.4921875 -0.36328125 C18.49133499 0.0711747 19.82480589 0.91747111 22 3 C23.01973129 6.05919388 23.11533602 8.12418025 23.09765625 11.32421875 C23.09443359 12.35224609 23.09121094 13.38027344 23.08789062 14.43945312 C23.07951172 15.51130859 23.07113281 16.58316406 23.0625 17.6875 C23.05798828 18.77095703 23.05347656 19.85441406 23.04882812 20.97070312 C23.03703743 23.64719085 23.02058063 26.32356777 23 29 C21.02 29 19.04 29 17 29 C16.97494385 28.3387915 16.9498877 27.67758301 16.92407227 26.99633789 C16.80846898 24.01817695 16.68558246 21.0403608 16.5625 18.0625 C16.52318359 17.02158203 16.48386719 15.98066406 16.44335938 14.90820312 C16.40146484 13.91884766 16.35957031 12.92949219 16.31640625 11.91015625 C16.27974854 10.99371338 16.24309082 10.07727051 16.20532227 9.13305664 C16.22996136 7.0179272 16.22996136 7.0179272 15 6 C10.91376443 5.55599997 10.91376443 5.55599997 7.33666992 7.22387695 C5.6370016 9.48234033 5.57773007 10.85927585 5.48828125 13.66796875 C5.45283203 14.56064453 5.41738281 15.45332031 5.38085938 16.37304688 C5.35830078 17.30181641 5.33574219 18.23058594 5.3125 19.1875 C5.27833984 20.12787109 5.24417969 21.06824219 5.20898438 22.03710938 C5.12651782 24.35795393 5.05736597 26.67842148 5 29 C3.35 29 1.7 29 0 29 C0 19.43 0 9.86 0 0 Z " fill="#002229" transform="translate(396,173)"/>
<path d="M0 0 C2.86350048 1.33706536 3.87175745 2.4897652 6 5 C6.875 8.3125 6.875 8.3125 7 11 C5.02 11 3.04 11 1 11 C0.6596875 9.7934375 0.6596875 9.7934375 0.3125 8.5625 C-0.74766998 5.79741974 -0.74766998 5.79741974 -3.375 5.0625 C-6.2750317 4.99345163 -7.61733504 5.38319163 -10 7 C-11.28282363 9.56564725 -11.20391953 11.51033069 -11.25 14.375 C-11.27578125 15.33148438 -11.3015625 16.28796875 -11.328125 17.2734375 C-10.94840892 20.42869729 -10.22782475 21.76176485 -8 24 C-5 24.66666667 -5 24.66666667 -2 24 C-1.505 23.34 -1.01 22.68 -0.5 22 C-0.005 21.34 0.49 20.68 1 20 C4.1875 19.75 4.1875 19.75 7 20 C6.12705425 23.84096129 5.3297002 25.70169982 2.375 28.375 C-1.6804673 30.3276324 -4.58635037 30.86334863 -9 30 C-12.5898898 28.23892199 -14.52102719 26.65459617 -16.875 23.4375 C-18.65713123 17.99209901 -19.14503573 12.30005168 -17.23828125 6.8046875 C-13.4206361 -0.40809662 -7.55943276 -1.154748 0 0 Z " fill="#002229" transform="translate(358,221)"/>
<path d="M0 0 C1.65 0 3.3 0 5 0 C5.60773974 1.4777022 6.21094504 2.95726927 6.8125 4.4375 C7.14894531 5.26121094 7.48539062 6.08492187 7.83203125 6.93359375 C9.34852933 10.9150352 10.67703493 14.95082371 12 19 C12.176521 18.45996338 12.35304199 17.91992676 12.53491211 17.36352539 C13.33266495 14.92881836 14.13501879 12.49565242 14.9375 10.0625 C15.21529297 9.21236328 15.49308594 8.36222656 15.77929688 7.48632812 C16.04677734 6.67744141 16.31425781 5.86855469 16.58984375 5.03515625 C16.83597412 4.2862915 17.08210449 3.53742676 17.33569336 2.76586914 C18 1 18 1 19 0 C20.66617115 -0.04063832 22.33388095 -0.042721 24 0 C23.41066394 4.05987066 22.52036888 7.75197364 21.15234375 11.6171875 C20.61577148 13.14472656 20.61577148 13.14472656 20.06835938 14.703125 C19.69517578 15.74984375 19.32199219 16.7965625 18.9375 17.875 C18.56044922 18.94492188 18.18339844 20.01484375 17.79492188 21.1171875 C16.86766315 23.7463768 15.93590193 26.37387762 15 29 C13.02 29 11.04 29 9 29 C7.48958243 24.92044428 5.9934855 20.83578164 4.5 16.75 C4.07074219 15.59113281 3.64148438 14.43226563 3.19921875 13.23828125 C2.79316406 12.12324219 2.38710938 11.00820312 1.96875 9.859375 C1.59169922 8.83295898 1.21464844 7.80654297 0.82617188 6.74902344 C0 4 0 4 0 0 Z " fill="#00222A" transform="translate(339,173)"/>
<path d="M0 0 C1.98 0 3.96 0 6 0 C6 2.31 6 4.62 6 7 C7.65 7 9.3 7 11 7 C11 8.65 11 10.3 11 12 C9.35 12 7.7 12 6 12 C6.33 18.27 6.66 24.54 7 31 C8.32 31.33 9.64 31.66 11 32 C11 33.65 11 35.3 11 37 C4.375 37.25 4.375 37.25 1 35 C0.03911617 32.11734851 -0.11670941 30.32337729 -0.09765625 27.33203125 C-0.09443359 26.43935547 -0.09121094 25.54667969 -0.08789062 24.62695312 C-0.07951172 23.69818359 -0.07113281 22.76941406 -0.0625 21.8125 C-0.05798828 20.87212891 -0.05347656 19.93175781 -0.04882812 18.96289062 C-0.03704626 16.64186288 -0.02059558 14.32096356 0 12 C-1.65 12 -3.3 12 -5 12 C-5 10.35 -5 8.7 -5 7 C-3.35 7 -1.7 7 0 7 C0 4.69 0 2.38 0 0 Z " fill="#00222A" transform="translate(444,214)"/>
<path d="M0 0 C1.98 0 3.96 0 6 0 C6 2.31 6 4.62 6 7 C7.65 7 9.3 7 11 7 C11 8.65 11 10.3 11 12 C9.35 12 7.7 12 6 12 C6.33 18.27 6.66 24.54 7 31 C8.32 31.33 9.64 31.66 11 32 C11 33.65 11 35.3 11 37 C7.75 37.3125 7.75 37.3125 4 37 C1.42374377 34.82288206 0.15124926 33.09632302 -0.31542969 29.71362305 C-0.39382107 27.02719097 -0.34869558 24.37315856 -0.25 21.6875 C-0.23195313 20.75615234 -0.21390625 19.82480469 -0.1953125 18.86523438 C-0.14834888 16.57575803 -0.08269475 14.28841816 0 12 C-1.65 12 -3.3 12 -5 12 C-5 10.35 -5 8.7 -5 7 C-3.35 7 -1.7 7 0 7 C0 4.69 0 2.38 0 0 Z " fill="#00222A" transform="translate(427,166)"/>
<path d="M0 0 C1.98 0 3.96 0 6 0 C6 13.53 6 27.06 6 41 C4.02 41 2.04 41 0 41 C0 27.47 0 13.94 0 0 Z " fill="#002229" transform="translate(490,209)"/>
<path d="M0 0 C4.95 0 9.9 0 15 0 C15 1.65 15 3.3 15 5 C13.865625 5.309375 12.73125 5.61875 11.5625 5.9375 C8.21224901 6.62924531 8.21224901 6.62924531 7 8 C6.84313751 9.55948542 6.74923361 11.12542668 6.68359375 12.69140625 C6.64169922 13.63564453 6.59980469 14.57988281 6.55664062 15.55273438 C6.51732422 16.54595703 6.47800781 17.53917969 6.4375 18.5625 C6.37272461 20.05813477 6.37272461 20.05813477 6.30664062 21.58398438 C6.20019702 24.0558415 6.09818072 26.5278031 6 29 C4.02 29 2.04 29 0 29 C0 19.43 0 9.86 0 0 Z " fill="#002229" transform="translate(473,173)"/>
<path d="M0 0 C7.26 0 14.52 0 22 0 C22 2.97 22 5.94 22 9 C14.74 9 7.48 9 0 9 C0 6.03 0 3.06 0 0 Z " fill="#00222A" transform="translate(410,131)"/>
<path d="M0 0 C2.64 0 5.28 0 8 0 C8 4.95 8 9.9 8 15 C3.05 15 -1.9 15 -7 15 C-7 12.03 -7 9.06 -7 6 C-4.69 6 -2.38 6 0 6 C0 4.02 0 2.04 0 0 Z " fill="#00222A" transform="translate(443,125)"/>
<path d="M0 0 C4.95 0 9.9 0 15 0 C15 4.95 15 9.9 15 15 C12.36 15 9.72 15 7 15 C7 13.02 7 11.04 7 9 C4.69 9 2.38 9 0 9 C0 6.03 0 3.06 0 0 Z " fill="#00222A" transform="translate(436,80)"/>
<path d="M0 0 C2.64 0 5.28 0 8 0 C8 1.98 8 3.96 8 6 C9.98 6 11.96 6 14 6 C14 8.97 14 11.94 14 15 C9.38 15 4.76 15 0 15 C0 10.05 0 5.1 0 0 Z " fill="#00222A" transform="translate(392,125)"/>
<path d="M0 0 C4.62 0 9.24 0 14 0 C14 2.97 14 5.94 14 9 C12.02 9 10.04 9 8 9 C8 10.98 8 12.96 8 15 C5.36 15 2.72 15 0 15 C0 10.05 0 5.1 0 0 Z " fill="#002229" transform="translate(392,80)"/>
<path d="M0 0 C1.65 0 3.3 0 5 0 C5 9.57 5 19.14 5 29 C3.35 29 1.7 29 0 29 C0 19.43 0 9.86 0 0 Z " fill="#002229" transform="translate(430,221)"/>
<path d="M0 0 C2.64 0 5.28 0 8 0 C8 2.97 8 5.94 8 9 C5.36 9 2.72 9 0 9 C0 6.03 0 3.06 0 0 Z " fill="#002229" transform="translate(392,112)"/>
<path d="M0 0 C2.64 0 5.28 0 8 0 C8 2.97 8 5.94 8 9 C5.36 9 2.72 9 0 9 C0 6.03 0 3.06 0 0 Z " fill="#002229" transform="translate(392,99)"/>
<path d="M0 0 C1.2065625 0.0309375 1.2065625 0.0309375 2.4375 0.0625 C2.81968767 1.71864657 3.15145102 3.38707024 3.4375 5.0625 C2.4375 6.0625 2.4375 6.0625 -0.125 6.125 C-1.3315625 6.0940625 -1.3315625 6.0940625 -2.5625 6.0625 C-2.94468767 4.40635343 -3.27645102 2.73792976 -3.5625 1.0625 C-2.5625 0.0625 -2.5625 0.0625 0 0 Z " fill="#002229" transform="translate(432.5625,210.9375)"/>
</svg>
